<svg width="226" height="221" viewBox="0 0 226 221" fill="none" xmlns="http://www.w3.org/2000/svg">
<path fill-rule="evenodd" clip-rule="evenodd" d="M225.015 42.6556C225.397 43.9368 225.249 45.3175 224.606 46.4893L198.53 93.9844C197.939 95.0621 197.765 96.3201 198.042 97.5179L210.368 150.786C211.034 153.664 209.073 156.489 206.144 156.871L190.02 158.974C189.099 159.094 188.23 159.468 187.51 160.054L167.112 176.658L152.112 188.658L136.528 217.533C135.656 219.15 133.966 220.158 132.128 220.158H93.0948C91.2571 220.158 89.5675 219.15 88.6947 217.533L73.1116 188.658L57.6116 176.658L37.7266 160.087C36.9983 159.48 36.1124 159.093 35.1724 158.97L19.0793 156.871C16.1499 156.489 14.1887 153.664 14.8547 150.786L27.6116 95.6579L0.617036 46.4893C-0.0263208 45.3174 -0.17363 43.9368 0.208001 42.6556L11.849 3.57517C12.7567 0.527745 16.241 -0.909382 19.0332 0.61199L90.4931 39.5485C91.227 39.9484 92.0495 40.1579 92.8853 40.1579H132.338C133.174 40.1579 133.996 39.9484 134.73 39.5485L206.19 0.611986C208.982 -0.909387 212.466 0.52774 213.374 3.57516L225.015 42.6556ZM102.612 176.658L97.1116 181.658V194.658L108.612 201.658H116.112L127.612 194.658V181.658L122.112 176.658H102.612ZM57.6116 113.658L69.6116 130.158L91.1116 135.658L86.6116 120.658L66.1116 112.658L57.6116 113.658ZM138.112 120.658L133.612 135.658L155.112 130.158L167.112 113.658L158.612 112.658L138.112 120.658Z" fill="#F67D31"/>
</svg>
